<svg width="35" height="35" viewBox="0 0 35 35" fill="none" xmlns="http://www.w3.org/2000/svg">
<path d="M32.0833 18.7542C32.0833 22.0938 30.3625 25.0542 27.7083 26.9208L25.7541 31.2229C25.302 32.2 23.9895 32.3896 23.3041 31.5583L21.1458 28.9625C18.4333 28.9625 15.9395 28.0438 14.0437 26.5125L14.9187 25.4771C21.6562 24.9667 26.9791 19.6292 26.9791 13.125C26.9791 12.0167 26.8187 10.9229 26.527 9.87292C29.8375 11.6229 32.0833 14.9479 32.0833 18.7542Z" fill="#EE0033"/>
<path d="M23.7708 8.8521C22.0646 5.3521 18.2583 2.91669 13.8542 2.91669C7.81666 2.91669 2.91666 7.48127 2.91666 13.125C2.91666 16.4646 4.63749 19.425 7.29166 21.2917L9.24582 25.5938C9.69791 26.5709 11.0104 26.7459 11.6958 25.9292L12.4979 24.9667L13.8542 23.3334C19.8917 23.3334 24.7917 18.7688 24.7917 13.125C24.7917 11.5938 24.4271 10.15 23.7708 8.8521ZM17.5 14.2188H10.2083C9.61041 14.2188 9.11457 13.7229 9.11457 13.125C9.11457 12.5271 9.61041 12.0313 10.2083 12.0313H17.5C18.0979 12.0313 18.5937 12.5271 18.5937 13.125C18.5937 13.7229 18.0979 14.2188 17.5 14.2188Z" fill="#EE0033"/>
</svg>
